<svg id="Layer_1" data-name="Layer 1" xmlns="http://www.w3.org/2000/svg" viewBox="0 0 720 720"><defs><style>.cls-1{fill:none;}.cls-2{fill:#f1c319;}.cls-3{fill:#1a174e;}</style></defs><title>IEC</title><line class="cls-1" x1="164.38" y1="385.66" x2="159.95" y2="386.55"/><path class="cls-2" d="M335.69,259.93H387.1a16.75,16.75,0,0,0,15.4-10.13l15.15-35.17a37,37,0,0,0,2.46-8.24H369.79a16.76,16.76,0,0,0-15.4,10.13Z"/><path class="cls-3" d="M334.92,409.18l-1,2.34a2.88,2.88,0,0,0,2.66,4h98.17a2.16,2.16,0,0,1,2.16,2.16V471a11,11,0,0,1-11,11H288c-7.41,0-14.18-3.77-19.07-9.77a35.58,35.58,0,0,1-7.46-17.44c-.11-.64-.19-1.32-.25-2s-.14-1.42-.17-2.1-.06-1.32-.06-2v-.31a38.92,38.92,0,0,1,3-15.1l12.79-30.45,17.77-42.38v0l1.38-3.3,0,0,6.89-16.42,3.49-8.32L334.23,266h91.92a10.81,10.81,0,0,1,10.8,10.8v53.49a2.16,2.16,0,0,1-2.16,2.16H369.06a2.88,2.88,0,0,0-2.66,1.77l-1.07,2.56a2.87,2.87,0,0,0,2.65,4h70.48a2.16,2.16,0,0,1,2.16,2.16v62.34a2.16,2.16,0,0,1-2.16,2.16H337.59A2.89,2.89,0,0,0,334.92,409.18Z"/><line class="cls-1" x1="438.89" y1="332.42" x2="438.89" y2="340.74"/></svg>